<svg aria-hidden="true" style="position: absolute; width: 0; height: 0; overflow: hidden;" version="1.1" xmlns="http://www.w3.org/2000/svg" xmlns:xlink="http://www.w3.org/1999/xlink">
<defs>

<!-- Icon Search -->
<symbol id="icon-search" viewBox="0 0 24 24">
<path d="M16.041 15.856c-0.034 0.026-0.067 0.055-0.099 0.087s-0.060 0.064-0.087 0.099c-1.258 1.213-2.969 1.958-4.855 1.958-1.933 0-3.682-0.782-4.95-2.050s-2.050-3.017-2.050-4.95 0.782-3.682 2.050-4.95 3.017-2.050 4.95-2.050 3.682 0.782 4.95 2.050 2.050 3.017 2.050 4.95c0 1.886-0.745 3.597-1.959 4.856zM21.707 20.293l-3.675-3.675c1.231-1.54 1.968-3.493 1.968-5.618 0-2.485-1.008-4.736-2.636-6.364s-3.879-2.636-6.364-2.636-4.736 1.008-6.364 2.636-2.636 3.879-2.636 6.364 1.008 4.736 2.636 6.364 3.879 2.636 6.364 2.636c2.125 0 4.078-0.737 5.618-1.968l3.675 3.675c0.391 0.391 1.024 0.391 1.414 0s0.391-1.024 0-1.414z"/>
</symbol>

<!-- Icon location -->
<symbol id="icon-location" viewBox="0 0 24 24">
  <path d="M8 16s6-5.686 6-10A6 6 0 0 0 2 6c0 4.314 6 10 6 10zm0-7a3 3 0 1 1 0-6 3 3 0 0 1 0 6z"/>
</symbol>

<!-- Icon snow -->
<symbol id="icon-snow" viewBox="0 0 24 24">
<path d="M8 16a.5.5 0 0 1-.5-.5v-1.293l-.646.647a.5.5 0 0 1-.707-.708L7.5 12.793V8.866l-3.4 1.963-.496 1.85a.5.5 0 1 1-.966-.26l.237-.882-1.12.646a.5.5 0 0 1-.5-.866l1.12-.646-.884-.237a.5.5 0 1 1 .26-.966l1.848.495L7 8 3.6 6.037l-1.85.495a.5.5 0 0 1-.258-.966l.883-.237-1.12-.646a.5.5 0 1 1 .5-.866l1.12.646-.237-.883a.5.5 0 1 1 .966-.258l.495 1.849L7.5 7.134V3.207L6.147 1.854a.5.5 0 1 1 .707-.708l.646.647V.5a.5.5 0 1 1 1 0v1.293l.647-.647a.5.5 0 1 1 .707.708L8.5 3.207v3.927l3.4-1.963.496-1.85a.5.5 0 1 1 .966.26l-.236.882 1.12-.646a.5.5 0 0 1 .5.866l-1.12.646.883.237a.5.5 0 1 1-.26.966l-1.848-.495L9 8l3.4 1.963 1.849-.495a.5.5 0 0 1 .259.966l-.883.237 1.12.646a.5.5 0 0 1-.5.866l-1.12-.646.236.883a.5.5 0 1 1-.966.258l-.495-1.849-3.4-1.963v3.927l1.353 1.353a.5.5 0 0 1-.707.708l-.647-.647V15.5a.5.5 0 0 1-.5.5z"/>
</symbol>

<!-- Icon cloud -->
<symbol id="icon-cloud" viewBox="0 0 24 24">
<path d="M4.406 3.342A5.53 5.53 0 0 1 8 2c2.69 0 4.923 2 5.166 4.579C14.758 6.804 16 8.137 16 9.773 16 11.569 14.502 13 12.687 13H3.781C1.708 13 0 11.366 0 9.318c0-1.763 1.266-3.223 2.942-3.593.143-.863.698-1.723 1.464-2.383zm.653.757c-.757.653-1.153 1.44-1.153 2.056v.448l-.445.049C2.064 6.805 1 7.952 1 9.318 1 10.785 2.23 12 3.781 12h8.906C13.98 12 15 10.988 15 9.773c0-1.216-1.02-2.228-2.313-2.228h-.5v-.5C12.188 4.825 10.328 3 8 3a4.53 4.53 0 0 0-2.941 1.1z"/>
</symbol>

<!-- Icon sunrise -->
<symbol id="icon-sunrise" viewBox="0 0 24 24">
<path d="M7.646 1.146a.5.5 0 0 1 .708 0l1.5 1.5a.5.5 0 0 1-.708.708L8.5 2.707V4.5a.5.5 0 0 1-1 0V2.707l-.646.647a.5.5 0 1 1-.708-.708l1.5-1.5zM2.343 4.343a.5.5 0 0 1 .707 0l1.414 1.414a.5.5 0 0 1-.707.707L2.343 5.05a.5.5 0 0 1 0-.707zm11.314 0a.5.5 0 0 1 0 .707l-1.414 1.414a.5.5 0 1 1-.707-.707l1.414-1.414a.5.5 0 0 1 .707 0zM8 7a3 3 0 0 1 2.599 4.5H5.4A3 3 0 0 1 8 7zm3.71 4.5a4 4 0 1 0-7.418 0H.499a.5.5 0 0 0 0 1h15a.5.5 0 0 0 0-1h-3.79zM0 10a.5.5 0 0 1 .5-.5h2a.5.5 0 0 1 0 1h-2A.5.5 0 0 1 0 10zm13 0a.5.5 0 0 1 .5-.5h2a.5.5 0 0 1 0 1h-2a.5.5 0 0 1-.5-.5z"/>
</symbol>

<!-- Icon sunset -->
<symbol id="icon-sunset" viewBox="0 0 24 24">
<path d="M7.646 4.854a.5.5 0 0 0 .708 0l1.5-1.5a.5.5 0 0 0-.708-.708l-.646.647V1.5a.5.5 0 0 0-1 0v1.793l-.646-.647a.5.5 0 1 0-.708.708l1.5 1.5zm-5.303-.51a.5.5 0 0 1 .707 0l1.414 1.413a.5.5 0 0 1-.707.707L2.343 5.05a.5.5 0 0 1 0-.707zm11.314 0a.5.5 0 0 1 0 .706l-1.414 1.414a.5.5 0 1 1-.707-.707l1.414-1.414a.5.5 0 0 1 .707 0zM8 7a3 3 0 0 1 2.599 4.5H5.4A3 3 0 0 1 8 7zm3.71 4.5a4 4 0 1 0-7.418 0H.499a.5.5 0 0 0 0 1h15a.5.5 0 0 0 0-1h-3.79zM0 10a.5.5 0 0 1 .5-.5h2a.5.5 0 0 1 0 1h-2A.5.5 0 0 1 0 10zm13 0a.5.5 0 0 1 .5-.5h2a.5.5 0 0 1 0 1h-2a.5.5 0 0 1-.5-.5z"/>
</symbol>

<!-- Icon precipitation -->
<symbol id="icon-precipitation" viewBox="0 0 24 24">
<path d="M8 16a6 6 0 0 0 6-6c0-1.655-1.122-2.904-2.432-4.362C10.254 4.176 8.75 2.503 8 0c0 0-6 5.686-6 10a6 6 0 0 0 6 6ZM6.646 4.646l.708.708c-.29.29-1.128 1.311-1.907 2.87l-.894-.448c.82-1.641 1.717-2.753 2.093-3.13Z"/>
</symbol>

<!-- Icon humidity -->
<symbol id="icon-humidity" viewBox="0 0 24 24">
<path d="M13.442 2.558a.625.625 0 0 1 0 .884l-10 10a.625.625 0 1 1-.884-.884l10-10a.625.625 0 0 1 .884 0zM4.5 6a1.5 1.5 0 1 1 0-3 1.5 1.5 0 0 1 0 3zm0 1a2.5 2.5 0 1 0 0-5 2.5 2.5 0 0 0 0 5zm7 6a1.5 1.5 0 1 1 0-3 1.5 1.5 0 0 1 0 3zm0 1a2.5 2.5 0 1 0 0-5 2.5 2.5 0 0 0 0 5z"/>
</symbol>


<!-- Icon wind -->
<symbol id="icon-wind" viewBox="0 0 24 24">
<path d="M12.5 2A2.5 2.5 0 0 0 10 4.5a.5.5 0 0 1-1 0A3.5 3.5 0 1 1 12.5 8H.5a.5.5 0 0 1 0-1h12a2.5 2.5 0 0 0 0-5zm-7 1a1 1 0 0 0-1 1 .5.5 0 0 1-1 0 2 2 0 1 1 2 2h-5a.5.5 0 0 1 0-1h5a1 1 0 0 0 0-2zM0 9.5A.5.5 0 0 1 .5 9h10.042a3 3 0 1 1-3 3 .5.5 0 0 1 1 0 2 2 0 1 0 2-2H.5a.5.5 0 0 1-.5-.5z"/>
</symbol>

<!-- Icon pressure -->
<symbol id="icon-pressure" viewBox="0 0 24 24">
<path d="M8 1a.5.5 0 0 1 .5.5v11.793l3.146-3.147a.5.5 0 0 1 .708.708l-4 4a.5.5 0 0 1-.708 0l-4-4a.5.5 0 0 1 .708-.708L7.5 13.293V1.5A.5.5 0 0 1 8 1z"/>
</symbol>

<!-- Icon feels like -->
<symbol id="icon-feelslike" viewBox="0 0 24 24">
<path d="M9.5 12.5a1.5 1.5 0 1 1-2-1.415V2.5a.5.5 0 0 1 1 0v8.585a1.5 1.5 0 0 1 1 1.415z"/>
<path d="M5.5 2.5a2.5 2.5 0 0 1 5 0v7.55a3.5 3.5 0 1 1-5 0V2.5zM8 1a1.5 1.5 0 0 0-1.5 1.5v7.987l-.167.15a2.5 2.5 0 1 0 3.333 0l-.166-.15V2.5A1.5 1.5 0 0 0 8 1z"/>
</symbol>

<!-- Icon visibility -->
<symbol id="icon-visibility" viewBox="0 0 24 24">
    <path d="M10.5 8a2.5 2.5 0 1 1-5 0 2.5 2.5 0 0 1 5 0z"/>
    <path d="M0 8s3-5.5 8-5.5S16 8 16 8s-3 5.5-8 5.5S0 8 0 8zm8 3.5a3.5 3.5 0 1 0 0-7 3.5 3.5 0 0 0 0 7z"/>
</symbol>

<!-- Icon Loader -->
<symbol id="icon-loader" viewBox="0 0 24 24">
<path d="M11 2v4c0 0.552 0.448 1 1 1s1-0.448 1-1v-4c0-0.552-0.448-1-1-1s-1 0.448-1 1zM11 18v4c0 0.552 0.448 1 1 1s1-0.448 1-1v-4c0-0.552-0.448-1-1-1s-1 0.448-1 1zM4.223 5.637l2.83 2.83c0.391 0.391 1.024 0.391 1.414 0s0.391-1.024 0-1.414l-2.83-2.83c-0.391-0.391-1.024-0.391-1.414 0s-0.391 1.024 0 1.414zM15.533 16.947l2.83 2.83c0.391 0.391 1.024 0.391 1.414 0s0.391-1.024 0-1.414l-2.83-2.83c-0.391-0.391-1.024-0.391-1.414 0s-0.391 1.024 0 1.414zM2 13h4c0.552 0 1-0.448 1-1s-0.448-1-1-1h-4c-0.552 0-1 0.448-1 1s0.448 1 1 1zM18 13h4c0.552 0 1-0.448 1-1s-0.448-1-1-1h-4c-0.552 0-1 0.448-1 1s0.448 1 1 1zM5.637 19.777l2.83-2.83c0.391-0.391 0.391-1.024 0-1.414s-1.024-0.391-1.414 0l-2.83 2.83c-0.391 0.391-0.391 1.024 0 1.414s1.024 0.391 1.414 0zM16.947 8.467l2.83-2.83c0.391-0.391 0.391-1.024 0-1.414s-1.024-0.391-1.414 0l-2.83 2.83c-0.391 0.391-0.391 1.024 0 1.414s1.024 0.391 1.414 0z"/>
</symbol>

<!-- /////////////// Day icon /////////////// -->

<!-- Clear Sky -->
<symbol id="d-clear-sky" viewBox="0 0 24 24">
<path d="M8 11a3 3 0 1 1 0-6 3 3 0 0 1 0 6zm0 1a4 4 0 1 0 0-8 4 4 0 0 0 0 8zM8 0a.5.5 0 0 1 .5.5v2a.5.5 0 0 1-1 0v-2A.5.5 0 0 1 8 0zm0 13a.5.5 0 0 1 .5.5v2a.5.5 0 0 1-1 0v-2A.5.5 0 0 1 8 13zm8-5a.5.5 0 0 1-.5.5h-2a.5.5 0 0 1 0-1h2a.5.5 0 0 1 .5.5zM3 8a.5.5 0 0 1-.5.5h-2a.5.5 0 0 1 0-1h2A.5.5 0 0 1 3 8zm10.657-5.657a.5.5 0 0 1 0 .707l-1.414 1.415a.5.5 0 1 1-.707-.708l1.414-1.414a.5.5 0 0 1 .707 0zm-9.193 9.193a.5.5 0 0 1 0 .707L3.05 13.657a.5.5 0 0 1-.707-.707l1.414-1.414a.5.5 0 0 1 .707 0zm9.193 2.121a.5.5 0 0 1-.707 0l-1.414-1.414a.5.5 0 0 1 .707-.707l1.414 1.414a.5.5 0 0 1 0 .707zM4.464 4.465a.5.5 0 0 1-.707 0L2.343 3.05a.5.5 0 1 1 .707-.707l1.414 1.414a.5.5 0 0 1 0 .708z"/>
</symbol>

<!-- Few clouds -->
<symbol id="d-few-clouds" viewBox="0 0 24 24">
  <path d="M7 8a3.5 3.5 0 0 1 3.5 3.555.5.5 0 0 0 .624.492A1.503 1.503 0 0 1 13 13.5a1.5 1.5 0 0 1-1.5 1.5H3a2 2 0 1 1 .1-3.998.5.5 0 0 0 .51-.375A3.502 3.502 0 0 1 7 8zm4.473 3a4.5 4.5 0 0 0-8.72-.99A3 3 0 0 0 3 16h8.5a2.5 2.5 0 0 0 0-5h-.027z"/>

  <path d="M10.5 1.5a.5.5 0 0 0-1 0v1a.5.5 0 0 0 1 0v-1zm3.743 1.964a.5.5 0 1 0-.707-.707l-.708.707a.5.5 0 0 0 .708.708l.707-.708zm-7.779-.707a.5.5 0 0 0-.707.707l.707.708a.5.5 0 1 0 .708-.708l-.708-.707zm1.734 3.374a2 2 0 1 1 3.296 2.198c.199.281.372.582.516.898a3 3 0 1 0-4.84-3.225c.352.011.696.055 1.028.129zm4.484 4.074c.6.215 1.125.59 1.522 1.072a.5.5 0 0 0 .039-.742l-.707-.707a.5.5 0 0 0-.854.377zM14.5 6.5a.5.5 0 0 0 0 1h1a.5.5 0 0 0 0-1h-1z"/>
</symbol>

<!-- /////////////// Night icon /////////////// -->

<!-- Clear sky -->
<symbol id="n-clear-sky" viewBox="0 0 24 24">
  <path d="M6 .278a.768.768 0 0 1 .08.858 7.208 7.208 0 0 0-.878 3.46c0 4.021 3.278 7.277 7.318 7.277.527 0 1.04-.055 1.533-.16a.787.787 0 0 1 .81.316.733.733 0 0 1-.031.893A8.349 8.349 0 0 1 8.344 16C3.734 16 0 12.286 0 7.71 0 4.266 2.114 1.312 5.124.06A.752.752 0 0 1 6 .278zM4.858 1.311A7.269 7.269 0 0 0 1.025 7.71c0 4.02 3.279 7.276 7.319 7.276a7.316 7.316 0 0 0 5.205-2.162c-.337.042-.68.063-1.029.063-4.61 0-8.343-3.714-8.343-8.29 0-1.167.242-2.278.681-3.286z"/>
  <path d="M10.794 3.148a.217.217 0 0 1 .412 0l.387 1.162c.173.518.579.924 1.097 1.097l1.162.387a.217.217 0 0 1 0 .412l-1.162.387a1.734 1.734 0 0 0-1.097 1.097l-.387 1.162a.217.217 0 0 1-.412 0l-.387-1.162A1.734 1.734 0 0 0 9.31 6.593l-1.162-.387a.217.217 0 0 1 0-.412l1.162-.387a1.734 1.734 0 0 0 1.097-1.097l.387-1.162zM13.863.099a.145.145 0 0 1 .274 0l.258.774c.115.346.386.617.732.732l.774.258a.145.145 0 0 1 0 .274l-.774.258a1.156 1.156 0 0 0-.732.732l-.258.774a.145.145 0 0 1-.274 0l-.258-.774a1.156 1.156 0 0 0-.732-.732l-.774-.258a.145.145 0 0 1 0-.274l.774-.258c.346-.115.617-.386.732-.732L13.863.1z"/>
</symbol>

<!-- Few clouds -->
<symbol id="n-few-clouds" viewBox="0 0 24 24">
   <path d="M7 8a3.5 3.5 0 0 1 3.5 3.555.5.5 0 0 0 .625.492A1.503 1.503 0 0 1 13 13.5a1.5 1.5 0 0 1-1.5 1.5H3a2 2 0 1 1 .1-3.998.5.5 0 0 0 .509-.375A3.502 3.502 0 0 1 7 8zm4.473 3a4.5 4.5 0 0 0-8.72-.99A3 3 0 0 0 3 16h8.5a2.5 2.5 0 0 0 0-5h-.027z"/>
  <path d="M11.286 1.778a.5.5 0 0 0-.565-.755 4.595 4.595 0 0 0-3.18 5.003 5.46 5.46 0 0 1 1.055.209A3.603 3.603 0 0 1 9.83 2.617a4.593 4.593 0 0 0 4.31 5.744 3.576 3.576 0 0 1-2.241.634c.162.317.295.652.394 1a4.59 4.59 0 0 0 3.624-2.04.5.5 0 0 0-.565-.755 3.593 3.593 0 0 1-4.065-5.422z"/>
</symbol>

<!-- /////////////// Common icon /////////////// -->

<!-- Scattered clouds -->
<symbol id="c-scattered-clouds" viewBox="0 0 24 24">
  <path d="M4.406 3.342A5.53 5.53 0 0 1 8 2c2.69 0 4.923 2 5.166 4.579C14.758 6.804 16 8.137 16 9.773 16 11.569 14.502 13 12.687 13H3.781C1.708 13 0 11.366 0 9.318c0-1.763 1.266-3.223 2.942-3.593.143-.863.698-1.723 1.464-2.383zm.653.757c-.757.653-1.153 1.44-1.153 2.056v.448l-.445.049C2.064 6.805 1 7.952 1 9.318 1 10.785 2.23 12 3.781 12h8.906C13.98 12 15 10.988 15 9.773c0-1.216-1.02-2.228-2.313-2.228h-.5v-.5C12.188 4.825 10.328 3 8 3a4.53 4.53 0 0 0-2.941 1.1z"/>
</symbol>

<!-- Broken clouds -->
<symbol id="c-broken-clouds" viewBox="0 0 24 24">
  <path d="M16 7.5a2.5 2.5 0 0 1-1.456 2.272 3.513 3.513 0 0 0-.65-.824 1.5 1.5 0 0 0-.789-2.896.5.5 0 0 1-.627-.421 3 3 0 0 0-5.22-1.625 5.587 5.587 0 0 0-1.276.088 4.002 4.002 0 0 1 7.392.91A2.5 2.5 0 0 1 16 7.5z"/>
  <path d="M7 5a4.5 4.5 0 0 1 4.473 4h.027a2.5 2.5 0 0 1 0 5H3a3 3 0 0 1-.247-5.99A4.502 4.502 0 0 1 7 5zm3.5 4.5a3.5 3.5 0 0 0-6.89-.873.5.5 0 0 1-.51.375A2 2 0 1 0 3 13h8.5a1.5 1.5 0 1 0-.376-2.953.5.5 0 0 1-.624-.492V9.5z"/>
</symbol>

<!-- Shower rain -->
<symbol id="c-shower-rain" viewBox="0 0 24 24">
  <path d="M4.158 12.025a.5.5 0 0 1 .316.633l-.5 1.5a.5.5 0 0 1-.948-.316l.5-1.5a.5.5 0 0 1 .632-.317zm6 0a.5.5 0 0 1 .316.633l-.5 1.5a.5.5 0 0 1-.948-.316l.5-1.5a.5.5 0 0 1 .632-.317zm-3.5 1.5a.5.5 0 0 1 .316.633l-.5 1.5a.5.5 0 0 1-.948-.316l.5-1.5a.5.5 0 0 1 .632-.317zm6 0a.5.5 0 0 1 .316.633l-.5 1.5a.5.5 0 1 1-.948-.316l.5-1.5a.5.5 0 0 1 .632-.317zm.747-8.498a5.001 5.001 0 0 0-9.499-1.004A3.5 3.5 0 1 0 3.5 11H13a3 3 0 0 0 .405-5.973zM8.5 2a4 4 0 0 1 3.976 3.555.5.5 0 0 0 .5.445H13a2 2 0 0 1 0 4H3.5a2.5 2.5 0 1 1 .605-4.926.5.5 0 0 0 .596-.329A4.002 4.002 0 0 1 8.5 2z"/>
</symbol>

<!-- Rain -->
<symbol id="c-rain" viewBox="0 0 24 24">
  <path d="M4.176 11.032a.5.5 0 0 1 .292.643l-1.5 4a.5.5 0 1 1-.936-.35l1.5-4a.5.5 0 0 1 .644-.293zm3 0a.5.5 0 0 1 .292.643l-1.5 4a.5.5 0 1 1-.936-.35l1.5-4a.5.5 0 0 1 .644-.293zm3 0a.5.5 0 0 1 .292.643l-1.5 4a.5.5 0 1 1-.936-.35l1.5-4a.5.5 0 0 1 .644-.293zm3 0a.5.5 0 0 1 .292.643l-1.5 4a.5.5 0 0 1-.936-.35l1.5-4a.5.5 0 0 1 .644-.293zm.229-7.005a5.001 5.001 0 0 0-9.499-1.004A3.5 3.5 0 1 0 3.5 10H13a3 3 0 0 0 .405-5.973zM8.5 1a4 4 0 0 1 3.976 3.555.5.5 0 0 0 .5.445H13a2 2 0 0 1 0 4H3.5a2.5 2.5 0 1 1 .605-4.926.5.5 0 0 0 .596-.329A4.002 4.002 0 0 1 8.5 1z"/>
</symbol>

<!-- Thunderstorm -->
<symbol id="c-thunderstorm" viewBox="0 0 24 24">
  <path d="M2.658 11.026a.5.5 0 0 1 .316.632l-.5 1.5a.5.5 0 1 1-.948-.316l.5-1.5a.5.5 0 0 1 .632-.316zm9.5 0a.5.5 0 0 1 .316.632l-.5 1.5a.5.5 0 1 1-.948-.316l.5-1.5a.5.5 0 0 1 .632-.316zm-7.5 1.5a.5.5 0 0 1 .316.632l-.5 1.5a.5.5 0 1 1-.948-.316l.5-1.5a.5.5 0 0 1 .632-.316zm9.5 0a.5.5 0 0 1 .316.632l-.5 1.5a.5.5 0 1 1-.948-.316l.5-1.5a.5.5 0 0 1 .632-.316zm-.753-8.499a5.001 5.001 0 0 0-9.499-1.004A3.5 3.5 0 1 0 3.5 10H13a3 3 0 0 0 .405-5.973zM8.5 1a4 4 0 0 1 3.976 3.555.5.5 0 0 0 .5.445H13a2 2 0 0 1 0 4H3.5a2.5 2.5 0 1 1 .605-4.926.5.5 0 0 0 .596-.329A4.002 4.002 0 0 1 8.5 1zM7.053 11.276A.5.5 0 0 1 7.5 11h1a.5.5 0 0 1 .474.658l-.28.842H9.5a.5.5 0 0 1 .39.812l-2 2.5a.5.5 0 0 1-.875-.433L7.36 14H6.5a.5.5 0 0 1-.447-.724l1-2z"/>
</symbol>

<!-- Snow -->
<symbol id="c-snow" viewBox="0 0 24 24">
  <path d="M8 7.5a.5.5 0 1 0 0 1 .5.5 0 0 0 0-1z"/>
  <path d="M8 16a.5.5 0 0 1-.5-.5v-1.293l-.646.647a.5.5 0 0 1-.707-.708L7.5 12.793v-1.51l-2.053-1.232-1.348.778-.495 1.85a.5.5 0 1 1-.966-.26l.237-.882-1.12.646a.5.5 0 0 1-.5-.866l1.12-.646-.883-.237a.5.5 0 1 1 .258-.966l1.85.495L5 9.155v-2.31l-1.4-.808-1.85.495a.5.5 0 1 1-.259-.966l.884-.237-1.12-.646a.5.5 0 0 1 .5-.866l1.12.646-.237-.883a.5.5 0 1 1 .966-.258l.495 1.849 1.348.778L7.5 4.717v-1.51L6.147 1.854a.5.5 0 1 1 .707-.708l.646.647V.5a.5.5 0 0 1 1 0v1.293l.647-.647a.5.5 0 1 1 .707.708L8.5 3.207v1.51l2.053 1.232 1.348-.778.495-1.85a.5.5 0 1 1 .966.26l-.236.882 1.12-.646a.5.5 0 0 1 .5.866l-1.12.646.883.237a.5.5 0 1 1-.26.966l-1.848-.495-1.4.808v2.31l1.4.808 1.849-.495a.5.5 0 1 1 .259.966l-.883.237 1.12.646a.5.5 0 0 1-.5.866l-1.12-.646.236.883a.5.5 0 1 1-.966.258l-.495-1.849-1.348-.778L8.5 11.283v1.51l1.354 1.353a.5.5 0 0 1-.707.708l-.647-.647V15.5a.5.5 0 0 1-.5.5zm2-6.783V6.783l-2-1.2-2 1.2v2.434l2 1.2 2-1.2z"/>
</symbol>

<!-- Mist -->
<symbol id="c-mist" viewBox="0 0 24 24">
  <path d="M3 13.5a.5.5 0 0 1 .5-.5h9a.5.5 0 0 1 0 1h-9a.5.5 0 0 1-.5-.5zm0 2a.5.5 0 0 1 .5-.5h9a.5.5 0 0 1 0 1h-9a.5.5 0 0 1-.5-.5zm10.405-9.473a5.001 5.001 0 0 0-9.499-1.004A3.5 3.5 0 1 0 3.5 12H13a3 3 0 0 0 .405-5.973zM8.5 3a4 4 0 0 1 3.976 3.555.5.5 0 0 0 .5.445H13a2 2 0 0 1 0 4H3.5a2.5 2.5 0 1 1 .605-4.926.5.5 0 0 0 .596-.329A4.002 4.002 0 0 1 8.5 3z"/>
</symbol>

</defs>
</svg>

